<?xml version="1.0" encoding="UTF-8" standalone="no"?>
<!-- Created with Inkscape (http://www.inkscape.org/) -->

<svg
   xmlns:dc="http://purl.org/dc/elements/1.1/"
   xmlns:cc="http://creativecommons.org/ns#"
   xmlns:rdf="http://www.w3.org/1999/02/22-rdf-syntax-ns#"
   xmlns:svg="http://www.w3.org/2000/svg"
   xmlns="http://www.w3.org/2000/svg"
   xmlns:sodipodi="http://sodipodi.sourceforge.net/DTD/sodipodi-0.dtd"
   xmlns:inkscape="http://www.inkscape.org/namespaces/inkscape"
   sodipodi:docname="skull-hat.svg"
   inkscape:version="0.48.4 r9939"
   version="1.1"
   id="svg2"
   height="129.05432"
   width="107.57791">
  <sodipodi:namedview
     id="base"
     pagecolor="#ffffff"
     bordercolor="#666666"
     borderopacity="1.0"
     inkscape:pageopacity="0.0"
     inkscape:pageshadow="2"
     inkscape:zoom="2.8"
     inkscape:cx="122.42913"
     inkscape:cy="75.473098"
     inkscape:document-units="px"
     inkscape:current-layer="layer1"
     showgrid="false"
     inkscape:window-width="1366"
     inkscape:window-height="718"
     inkscape:window-x="0"
     inkscape:window-y="25"
     inkscape:window-maximized="1"
     showguides="true"
     inkscape:guide-bbox="true"
     fit-margin-top="0"
     fit-margin-left="0"
     fit-margin-right="0"
     fit-margin-bottom="0" />
  <defs
     id="defs4" />
  <metadata
     id="metadata7">
    <rdf:RDF>
      <cc:Work
         rdf:about="">
        <dc:format>image/svg+xml</dc:format>
        <dc:type
           rdf:resource="http://purl.org/dc/dcmitype/StillImage" />
        <dc:title></dc:title>
      </cc:Work>
    </rdf:RDF>
  </metadata>
  <g
     id="layer1"
     inkscape:groupmode="layer"
     inkscape:label="Capa 1"
     transform="translate(-180.43324,-59.562399)">
    <path
       id="path3500"
       style="fill:#000000;fill-rule:evenodd;stroke:#000000;stroke-width:0.21233001pt;stroke-linejoin:bevel;stroke-opacity:0.99123003"
       inkscape:connector-curvature="0"
       d="m 238.01621,140.28663 c 0.43382,0.66305 1.244,2.2126 1.46549,3.25206 0.22127,1.03937 0.38706,2.54739 0.38638,3.34597 -0.003,2.70635 -0.91797,4.40408 -1.91763,4.34488 -0.95886,-0.0965 -2.09536,-0.97299 -3.81774,-2.96384 -1.64568,1.99085 -2.73156,2.86745 -4.16778,2.96384 -0.95513,0.0592 -1.8292,-1.63853 -1.83222,-4.34488 -6.5e-4,-0.79858 0.15776,-2.3066 0.36917,-3.34597 0.21162,-1.03946 0.98572,-2.589 1.40022,-3.25206 1.14541,-1.71795 1.60651,-2.23927 4.22987,-3.79172 2.20285,1.55245 2.68545,2.07377 3.88424,3.79172 z"
       sodipodi:nodetypes="ccccccccccc" />
    <path
       id="path3502"
       style="fill:#000000;fill-rule:evenodd;stroke:#000000;stroke-width:0.21233001pt;stroke-opacity:0.99123003"
       inkscape:connector-curvature="0"
       d="m 216.13271,125.49491 c 2.65331,-1.35554 5.38417,-1.67778 8.2023,-2 3.68983,-0.93778 5.54929,3.31102 4.53234,6.50488 -1.27826,2.8423 -3.07944,5.33295 -5.14223,7.73558 -1.59795,1.81667 -3.50159,2.11055 -5.31687,1.49415 -1.46523,-0.40966 -2.81843,-1.31832 -4.27103,-3.42807 -0.63901,-1.81686 -1.1909,-2.75459 -2.00451,-5.01073 -0.74085,-1.60744 0.94154,-4.42165 4,-5.29581 z"
       sodipodi:nodetypes="cccccccc" />
    <path
       id="path3504"
       style="fill:#000000;fill-rule:evenodd;stroke:#000000;stroke-width:0.21233001pt;stroke-opacity:0.99123003"
       inkscape:connector-curvature="0"
       d="m 252.13271,125.49491 c -2.91867,-1.35554 -5.64953,-1.67778 -8.46766,-2 -3.68983,-0.93778 -5.54929,3.31102 -4.53234,6.50488 1.27826,2.8423 3.07944,5.33295 5.14223,7.73558 1.59795,1.81667 3.50159,2.11055 5.31687,1.49415 1.46522,-0.40966 2.81843,-1.31832 4.27103,-3.42807 0.63901,-1.81686 1.19089,-2.75459 2.00451,-5.01073 -0.17652,-3.53106 -1.25755,-4.47338 -3.73464,-5.29581 z"
       sodipodi:nodetypes="cccccccc" />
    <path
       id="path3512"
       style="fill:none;stroke:#000000;stroke-width:1;stroke-opacity:0.99123003"
       inkscape:connector-curvature="0"
       d="m 215.5,148.86221 c 1.22975,2.9016 1.61013,4.00427 2.49689,6.89696 0.75558,2.6722 1.0333,4.30413 1.50013,8.10162" />
    <path
       id="path3514"
       style="fill:none;stroke:#000000;stroke-width:1;stroke-opacity:0.99123003"
       inkscape:connector-curvature="0"
       d="m 251.49174,148.86221 c -1.22813,2.90151 -1.60801,4.00415 -2.4936,6.89676 -0.75457,2.67212 -1.03193,4.30401 -1.49814,8.10138" />
    <path
       d="m 220.5,155.97457 c 3.07704,1.72499 8.39632,1.99099 13.16199,1.91264 5.30903,-0.0247 9.85393,-0.37511 12.83856,-2.025"
       inkscape:connector-curvature="0"
       style="fill:none;stroke:#000000;stroke-width:1;stroke-opacity:0.99123003"
       id="path3518" />
    <path
       d="m 221.5,160.83416 c 0.34563,0.26916 1.24943,10.84442 1.60706,11.03045 0.32686,0.16996 1.02686,-9.41521 1.36378,-9.26728 3.03049,1.33181 5.82347,1.16085 9.67177,1.01835 3.83708,-0.0916 5.51027,0.3567 8.46243,-0.81909 0.75168,3.08175 2.41659,9.09138 2.5799,9.06792 l 0.39902,-10.97073"
       inkscape:connector-curvature="0"
       style="fill:none;stroke:#000000;stroke-width:1;stroke-opacity:0.99123003"
       sodipodi:nodetypes="csscccc"
       id="path3520" />
    <path
       id="path3524"
       sodipodi:nodetypes="ccccccc"
       style="fill:none;stroke:#000000;stroke-width:1;stroke-opacity:0.99123003"
       inkscape:connector-curvature="0"
       d="m 218.5,162.86207 c 0.83614,0.9362 1.92893,1.86634 2.90571,2.4858 m 2.50682,1.12478 c 2.92405,1.2185 5.68495,1.30953 9.33831,1.39929 3.59002,0.12155 7.18878,-0.58069 9.92155,-1.74509 m 2.16186,-0.92894 c 1.07476,-0.67445 2.31245,-1.59309 2.79695,-2.241" />
    <g
       id="g3526"
       style="fill:none;stroke:#000000;stroke-opacity:0.99123003"
       transform="matrix(0.21233,0,0,0.21233,170,81)">
      <path
         id="path3528"
         style="fill:none;stroke:#000000;stroke-width:4.70965004;stroke-opacity:0.99123003"
         inkscape:connector-curvature="0"
         d="m 242.90052,357.28444 -0.35354,42.37477" />
      <path
         id="path3530"
         style="fill:none;stroke:#000000;stroke-width:4.70965004;stroke-opacity:0.99123003"
         inkscape:connector-curvature="0"
         d="m 256.86705,361.99409 -0.19112,42.40356" />
      <path
         id="path3532"
         style="fill:none;stroke:#000000;stroke-width:4.70965004;stroke-opacity:0.99123003"
         inkscape:connector-curvature="0"
         d="m 271.15842,361.99409 -0.35354,47.08902" />
      <path
         id="path3534"
         style="fill:none;stroke:#000000;stroke-width:4.70965004;stroke-opacity:0.99123003"
         inkscape:connector-curvature="0"
         d="m 285.12579,361.99409 -0.19196,47.0943" />
      <path
         id="path3536"
         style="fill:none;stroke:#000000;stroke-width:4.70965004;stroke-opacity:0.99123003"
         inkscape:connector-curvature="0"
         d="m 299.06278,361.99409 0,47.0943" />
      <path
         id="path3538"
         style="fill:none;stroke:#000000;stroke-width:4.70965004;stroke-opacity:0.99123003"
         inkscape:connector-curvature="0"
         d="m 313.00061,361.99409 0.19112,47.0943" />
      <path
         id="path3540"
         style="fill:none;stroke:#000000;stroke-width:4.70965004;stroke-opacity:0.99123003"
         inkscape:connector-curvature="0"
         d="m 327.32068,361.99409 0.35354,45.00583"
         sodipodi:nodetypes="cc" />
      <path
         id="path3542"
         style="fill:none;stroke:#000000;stroke-width:4.70965004;stroke-opacity:0.99123003"
         inkscape:connector-curvature="0"
         d="m 341.25851,357.28444 0.33979,43.44426"
         sodipodi:nodetypes="cc" />
      <path
         id="path3544"
         sodipodi:nodetypes="ccc"
         style="fill:none;stroke:#000000;stroke-width:4.70965004;stroke-opacity:0.99123003"
         inkscape:connector-curvature="0"
         d="m 355.57858,352.57479 0.34506,41.27721 0.009,1.10192" />
    </g>
    <path
       id="path3548"
       style="fill:none;stroke:#000000;stroke-width:3;stroke-linecap:round;stroke-linejoin:round;stroke-opacity:0.99123003"
       inkscape:connector-curvature="0"
       d="m 206.74522,130.86293 c -4.03435,-3.9338 -6.85393,-10.76081 -7.24522,-18.13317 m 68.00086,0.84239 c -0.31225,8.3065 -3.07931,12.88055 -7.31796,16.79913"
       sodipodi:nodetypes="cccc" />
    <path
       id="path3550"
       style="fill:none;stroke:#000000;stroke-width:3;stroke-linejoin:round;stroke-opacity:0.99123003"
       inkscape:connector-curvature="0"
       d="m 205.5,114.71261 c 0.23823,2.45995 1.83278,4.88138 1.91665,7.12874 0.58628,4.74221 -0.83791,9.48442 -1.50829,13.36075 -0.46089,4.45344 0.83813,8.2885 2.51375,9.77298 1.67561,1.46405 3.83849,2.07031 6.11098,2.75276 2.06474,0.53156 3.13548,1.45596 4.69717,2.60209 1.86044,1.94434 2.30426,3.55246 2.26232,5.53191"
       sodipodi:nodetypes="ccccccc" />
    <path
       id="path3552"
       style="fill:none;stroke:#000000;stroke-width:3;stroke-linejoin:round;stroke-opacity:0.99123003"
       inkscape:connector-curvature="0"
       d="m 261.48416,114.71259 c -0.2381,2.45994 -1.83181,4.88137 -1.91564,7.12873 -0.58597,4.7422 0.83747,9.4844 1.50749,13.36072 0.46066,4.45344 -0.83769,8.28848 -2.51242,9.77296 -1.67473,1.46404 -4.73985,2.25033 -6.10776,2.75275 -1.59393,0.54923 -3.22371,1.54449 -4.69469,2.69061 -1.76959,1.67855 -2.30306,3.46393 -2.26114,5.44337"
       sodipodi:nodetypes="ccccccc" />
    <path
       id="path3556"
       style="fill:none;stroke:#000000;stroke-width:3;stroke-opacity:0.99123003"
       inkscape:connector-curvature="0"
       d="m 255.50132,147.86221 c -1.46967,3.51762 -3.02747,6.9481 -3.17448,10.55288 0.67595,2.90713 0.47026,6.3376 -0.26458,9.07041 -0.94074,3.75018 -4.65899,8.06729 -8.3334,9.54998 -3.6742,1.48268 -6.02551,1.83151 -9.97562,1.79917 -3.94151,-0.0323 -6.79343,-0.31822 -10.54824,-1.6699 -3.66707,-1.48261 -7.33394,-5.93023 -8.2728,-9.68022 -0.73337,-2.73268 -0.93865,-6.16298 -0.26405,-9.06996 -0.14671,-3.60461 -1.7014,-7.03491 -3.16815,-10.55236"
       sodipodi:nodetypes="ccccccccc" />
    <path
       d="m 252.23819,163.86221 14.48599,6.85052 c 1.7664,0.75113 3.17952,0.51079 4.50459,0.0901 2.0904,-0.63096 3.73904,-0.27022 5.47616,0.45081 2.09041,1.08156 2.14961,2.61393 0.79526,4.14631 -1.23659,1.47217 -2.47339,2.22331 -3.97478,3.69548 -0.324,2.37359 -0.11797,4.56702 -1.14853,6.76045 -1.29537,1.92277 -2.67921,1.59235 -4.85788,-0.45081 -2.20816,-1.74284 -1.41333,-3.66561 -4.59307,-6.49001 L 249.5,171.79428"
       inkscape:connector-curvature="0"
       style="fill:none;stroke:#000000;stroke-width:3;stroke-linejoin:round;stroke-miterlimit:4;stroke-opacity:0.99123003;stroke-dasharray:none;stroke-dashoffset:0"
       id="path3560" />
    <path
       d="m 214.13504,163.86221 c -4.79261,2.5622 -9.14675,4.94761 -14.64066,7.06814 -4.47124,1.11916 -4.29581,-1.64914 -9.73138,0.1768 -1.54884,1.23695 -1.5196,3.00388 -0.263,4.32913 1.46118,1.44326 2.48402,2.35633 3.76994,3.62279 0.4092,1.82594 0.46753,3.38678 0.7013,5.5661 0.87672,2.68021 2.80539,2.53291 4.47102,1.23716 0.73057,-0.91307 1.63657,-1.73763 2.19171,-2.739 0.75985,-1.32525 1.6073,-2.8273 2.63018,-4.06426 l 13.23807,-7.06835"
       inkscape:connector-curvature="0"
       style="fill:none;stroke:#000000;stroke-width:3;stroke-linejoin:round;stroke-miterlimit:4;stroke-opacity:0.99123003;stroke-dasharray:none;stroke-dashoffset:0"
       id="path3562" />
    <path
       d="m 256.3412,149.64487 c 5.43597,-2.74746 9.90733,-4.95754 14.81719,-7.4362 3.01011,-2.5682 2.25042,-5.04708 4.64701,-6.8986 2.36711,-2.2996 3.94525,-1.73207 4.82204,-0.44786 0.84751,2.17994 1.25674,4.36009 1.13984,6.62978 2.25022,2.12033 3.44862,3.3447 4.73463,5.28618 0.17523,3.03894 -1.92902,4.05412 -4.47157,4.08404 -3.33172,0.62714 -3.85783,-1.5231 -7.62784,0 L 254.5,159.85826"
       inkscape:connector-curvature="0"
       style="fill:none;stroke:#000000;stroke-width:3;stroke-linecap:square;stroke-linejoin:round;stroke-miterlimit:4;stroke-opacity:0.99123003;stroke-dasharray:none;stroke-dashoffset:0"
       id="path3564" />
    <path
       d="m 212.75386,149.78853 c -5.53099,-2.6951 -10.12616,-4.70606 -15.59484,-7.71195 -2.97338,-2.36338 -2.0168,-5.03776 -5.61406,-7.21437 -1.58027,-0.78766 -2.72395,-1.14007 -3.99227,0.99512 -0.81093,1.90744 -0.74854,3.9389 -0.8733,5.90846 -1.41392,1.51319 -3.01492,2.40479 -4.17939,4.29132 -1.68424,2.69509 0.87328,3.58648 2.24567,3.91819 3.90898,0.97421 5.32288,-0.78787 8.92014,-0.0623 7.0074,3.25477 14.07689,6.63378 20.83465,9.95067"
       inkscape:connector-curvature="0"
       style="fill:none;stroke:#000000;stroke-width:3;stroke-linejoin:round;stroke-miterlimit:4;stroke-opacity:0.99123003;stroke-dasharray:none;stroke-dashoffset:0"
       id="path3566" />
    <path
       id="path3679"
       d="m 199,116.3622 c 15.70053,6.37671 25.69773,3.47601 41.55083,9.52275 3.9333,1.50025 16.41639,4.54326 20.44877,5.47099"
       sodipodi:nodetypes="csc"
       style="fill:none;stroke:#000000;stroke-width:2"
       inkscape:connector-curvature="0" />
    <path
       inkscape:connector-curvature="0"
       style="fill:none;stroke:#020202;stroke-width:3"
       sodipodi:nodetypes="cscscc"
       d="M 263.05502,94.018525 C 270.71524,97.211471 275.5,101.42286 275.5,105.26917 l 0,0.59304 c -0.006,6.9148 -18.04733,13.00119 -40.30375,13.00119 -22.25643,0 -43.69625,-7.02397 -43.69625,-14.53181 2.62806,-6.424506 8.31457,-8.718055 13.56053,-10.605397"
       id="path10410" />
    <path
       inkscape:connector-curvature="0"
       style="fill:none;stroke:#000000;stroke-width:3"
       sodipodi:nodetypes="cccccsc"
       d="m 205.00508,94.135048 2.75448,-17.335568 6.24092,-13.469576 c 5.70739,-3.473829 16.36254,-1.453565 20.71143,-0.4677 7.5181,-2.225399 15.79655,-2.586104 20.71141,0.4677 1.65794,4.543625 3.37625,8.866644 4.83791,13.469576 1.64019,5.165332 2.05523,11.899171 3.6164,17.091291"
       id="path10412" />
    <path
       inkscape:connector-curvature="0"
       style="fill:#000000;stroke:#000000;stroke-width:2"
       sodipodi:nodetypes="cccccc"
       d="m 204.99999,90.362204 -0.63135,4.383222 c 29.12399,7.998034 28.38322,7.059024 60.39941,1.350479 l -2.11696,-4.874296 c -24.35947,5.485089 -30.6886,5.909153 -57.61108,-0.859405 z"
       id="path10414" />
  </g>
</svg>
